<?xml version="1.0"?>
<svg xmlns="http://www.w3.org/2000/svg" id="Layer_5" enable-background="new 0 0 64 64" height="512px" viewBox="0 0 64 64" width="512px" class=""><g><g><path d="m48 24h4c.551 0 1-.449 1-1v-6c0-1.654-1.346-3-3-3h-1.495c.312 1.285.495 2.62.495 4 0 2.114-.406 4.131-1.114 6z" data-original="#000000" class="active-path" data-old_color="#000000" fill="#EAF3FF"/><path d="m27.087 7.74-1.367-3.344c-4.462 2.068-7.733 6.258-8.521 11.273 2.145-3.808 5.693-6.659 9.888-7.929z" data-original="#000000" class="active-path" data-old_color="#000000" fill="#EAF3FF"/><path d="m13 29v7.895c.682-.349 1.403-.638 2.166-.841l6.834-1.822v-2.514c-2.061-1.507-3.779-3.454-4.992-5.717h-1.008c-1.654-.001-3 1.345-3 2.999z" data-original="#000000" class="active-path" data-old_color="#000000" fill="#EAF3FF"/><path d="m11 56v-4c0-.551-.449-1-1-1h-1v6h1c.551 0 1-.449 1-1z" data-original="#000000" class="active-path" data-old_color="#000000" fill="#EAF3FF"/><path d="m12 24h4 .114c-.708-1.869-1.114-3.886-1.114-6 0-1.38.183-2.715.495-4h-1.495c-1.654 0-3 1.346-3 3v6c0 .551.449 1 1 1z" data-original="#000000" class="active-path" data-old_color="#000000" fill="#EAF3FF"/><path d="m46.8 15.669c-.787-5.007-4.049-9.192-8.501-11.263l-1.382 3.336c4.194 1.27 7.74 4.12 9.883 7.927z" data-original="#000000" class="active-path" data-old_color="#000000" fill="#EAF3FF"/><path d="m46.691 21.035c-.34-1.694-.955-3.277-1.801-4.699.07.55.11 1.105.11 1.664 0 7.168-5.832 13-13 13s-13-5.832-13-13c0-.559.039-1.113.11-1.663-.846 1.422-1.461 3.004-1.801 4.698 1.408 6.821 7.46 11.965 14.691 11.965s13.283-5.144 14.691-11.965z" data-original="#000000" class="active-path" data-old_color="#000000" fill="#EAF3FF"/><path d="m42 31.717v2.514l6.834 1.823c.763.203 1.484.492 2.166.841v-7.895c0-1.654-1.346-3-3-3h-1.008c-1.213 2.264-2.931 4.211-4.992 5.717z" data-original="#000000" class="active-path" data-old_color="#000000" fill="#EAF3FF"/><path d="m24 32.992v2.008c0 .514 2.75 2 8 2s8-1.486 8-2v-2.008c-2.386 1.278-5.109 2.008-8 2.008s-5.614-.73-8-2.008z" data-original="#000000" class="active-path" data-old_color="#000000" fill="#EAF3FF"/><circle cx="23" cy="55" r="2" data-original="#000000" class="active-path" data-old_color="#000000" fill="#EAF3FF"/><path d="m32 29c6.065 0 11-4.935 11-11 0-2.001-.549-3.95-1.574-5.655-2.595-2.1-5.888-3.345-9.426-3.345-3.541 0-6.836 1.246-9.432 3.35-1.022 1.702-1.568 3.652-1.568 5.65 0 6.065 4.935 11 11 11zm-7.795-15.5 1.731 1.001c-.317.549-.559 1.138-.716 1.749l-1.937-.499c.203-.787.513-1.544.922-2.251zm.795 4.5c0 3.86 3.14 7 7 7v2c-4.962 0-9-4.038-9-9z" data-original="#000000" class="active-path" data-old_color="#000000" fill="#EAF3FF"/><path d="m32 7c1.004 0 1.991.09 2.952.259l1.486-3.588c-1.403-.436-2.893-.671-4.438-.671-1.537 0-3.02.234-4.417.666l1.469 3.593c.96-.169 1.945-.259 2.948-.259z" data-original="#000000" class="active-path" data-old_color="#000000" fill="#EAF3FF"/><path d="m53 52v4c0 .551.449 1 1 1h1v-6h-1c-.551 0-1 .449-1 1z" data-original="#000000" class="active-path" data-old_color="#000000" fill="#EAF3FF"/><path d="m22.386 36.199-6.705 1.788c-3.933 1.049-6.681 4.625-6.681 8.696v2.317h1c1.654 0 3 1.346 3 3v4c0 1.654-1.346 3-3 3h-1v2h6v-10.757c0-2.469-.961-4.79-2.707-6.536l1.414-1.414c2.124 2.124 3.293 4.947 3.293 7.95v10.757h12v-22.168c-2.991-.336-5.656-1.194-6.614-2.633zm-1.386 10.801h2v2h-2zm-4-4h2v2h-2zm6 16c-2.206 0-4-1.794-4-4s1.794-4 4-4 4 1.794 4 4-1.794 4-4 4zm2-16h2v2h-2zm0 4h2v2h-2zm-2-2h-2v-2h2z" data-original="#000000" class="active-path" data-old_color="#000000" fill="#EAF3FF"/><path d="m31 38.981v22.019h2v-22.019c-.334.012-.668.019-1 .019s-.666-.007-1-.019z" data-original="#000000" class="active-path" data-old_color="#000000" fill="#EAF3FF"/><path d="m48.319 37.987-6.705-1.788c-.957 1.44-3.623 2.297-6.614 2.633v22.168h12v-10.757c0-3.003 1.169-5.826 3.293-7.95l1.414 1.414c-1.746 1.746-2.707 4.067-2.707 6.536v10.757h6v-2h-1c-1.654 0-3-1.346-3-3v-4c0-1.654 1.346-3 3-3h1v-2.317c0-4.071-2.748-7.647-6.681-8.696zm-9.319 21.013h-2v-2h2zm0-4h-2v-2h2zm4 4h-2v-2h2zm0-4h-2v-2h2zm2-4h-8v-6h8z" data-original="#000000" class="active-path" data-old_color="#000000" fill="#EAF3FF"/><path d="m39 47h4v2h-4z" data-original="#000000" class="active-path" data-old_color="#000000" fill="#EAF3FF"/></g></g> </svg>
